<svg width="403" height="325" viewBox="0 0 403 325" fill="none" xmlns="http://www.w3.org/2000/svg">
<path d="M1.07288e-06 162.5C1.07288e-06 137.3 3.45 114.65 10.35 94.55C17.55 74.45 27.15 57.5 39.15 43.7C51.45 29.6 65.55 18.95 81.45 11.75C97.65 4.24998 114.75 0.499983 132.75 0.499983C150.75 0.499983 167.7 4.24998 183.6 11.75C199.8 18.95 213.9 29.6 225.9 43.7C238.2 57.5 247.8 74.45 254.7 94.55C261.9 114.65 265.5 137.3 265.5 162.5C265.5 187.7 261.9 210.35 254.7 230.45C247.8 250.55 238.2 267.65 225.9 281.75C213.9 295.55 199.8 306.2 183.6 313.7C167.7 320.9 150.75 324.5 132.75 324.5C114.75 324.5 97.65 320.9 81.45 313.7C65.55 306.2 51.45 295.55 39.15 281.75C27.15 267.65 17.55 250.55 10.35 230.45C3.45 210.35 1.07288e-06 187.7 1.07288e-06 162.5ZM216 162.5C216 143.3 213.6 126.5 208.8 112.1C204.3 97.4 198.15 85.1 190.35 75.2C182.55 65.3 173.7 57.95 163.8 53.15C153.9 48.05 143.55 45.5 132.75 45.5C121.95 45.5 111.6 48.05 101.7 53.15C91.8 57.95 82.95 65.3 75.15 75.2C67.35 85.1 61.05 97.4 56.25 112.1C51.75 126.5 49.5 143.3 49.5 162.5C49.5 181.7 51.75 198.65 56.25 213.35C61.05 227.75 67.35 239.9 75.15 249.8C82.95 259.7 91.8 267.2 101.7 272.3C111.6 277.1 121.95 279.5 132.75 279.5C143.55 279.5 153.9 277.1 163.8 272.3C173.7 267.2 182.55 259.7 190.35 249.8C198.15 239.9 204.3 227.75 208.8 213.35C213.6 198.65 216 181.7 216 162.5ZM402.732 4.99998V320H353.232V81.5H296.982V47.75C307.182 46.55 315.882 44.75 323.082 42.35C330.282 39.95 336.432 36.95 341.532 33.35C346.932 29.45 351.432 25.25 355.032 20.75C358.632 15.95 361.782 10.7 364.482 4.99998H402.732Z" fill="#F3F7F4"/>
</svg>
