<svg width="507" height="325" viewBox="0 0 507 325" fill="none" xmlns="http://www.w3.org/2000/svg">
<path d="M1.07288e-06 162.5C1.07288e-06 137.3 3.45 114.65 10.35 94.55C17.55 74.45 27.15 57.5 39.15 43.7C51.45 29.6 65.55 18.95 81.45 11.75C97.65 4.24998 114.75 0.499983 132.75 0.499983C150.75 0.499983 167.7 4.24998 183.6 11.75C199.8 18.95 213.9 29.6 225.9 43.7C238.2 57.5 247.8 74.45 254.7 94.55C261.9 114.65 265.5 137.3 265.5 162.5C265.5 187.7 261.9 210.35 254.7 230.45C247.8 250.55 238.2 267.65 225.9 281.75C213.9 295.55 199.8 306.2 183.6 313.7C167.7 320.9 150.75 324.5 132.75 324.5C114.75 324.5 97.65 320.9 81.45 313.7C65.55 306.2 51.45 295.55 39.15 281.75C27.15 267.65 17.55 250.55 10.35 230.45C3.45 210.35 1.07288e-06 187.7 1.07288e-06 162.5ZM216 162.5C216 143.3 213.6 126.5 208.8 112.1C204.3 97.4 198.15 85.1 190.35 75.2C182.55 65.3 173.7 57.95 163.8 53.15C153.9 48.05 143.55 45.5 132.75 45.5C121.95 45.5 111.6 48.05 101.7 53.15C91.8 57.95 82.95 65.3 75.15 75.2C67.35 85.1 61.05 97.4 56.25 112.1C51.75 126.5 49.5 143.3 49.5 162.5C49.5 181.7 51.75 198.65 56.25 213.35C61.05 227.75 67.35 239.9 75.15 249.8C82.95 259.7 91.8 267.2 101.7 272.3C111.6 277.1 121.95 279.5 132.75 279.5C143.55 279.5 153.9 277.1 163.8 272.3C173.7 267.2 182.55 259.7 190.35 249.8C198.15 239.9 204.3 227.75 208.8 213.35C213.6 198.65 216 181.7 216 162.5ZM296.982 320C296.982 296 300.882 275.75 308.682 259.25C316.782 242.75 326.682 228.65 338.382 216.95C350.082 204.95 362.832 194.6 376.632 185.9C390.732 177.2 403.632 168.65 415.332 160.25C427.032 151.55 436.782 142.4 444.582 132.8C452.682 122.9 456.732 111.05 456.732 97.25C456.732 81.35 451.782 68.75 441.882 59.45C432.282 50.15 418.482 45.5 400.482 45.5C388.482 45.5 378.582 47.9 370.782 52.7C363.282 57.2 357.132 62.3 352.332 68C346.932 74.6 342.732 82.1 339.732 90.5L299.232 72.5C303.432 59 309.882 47 318.582 36.5C326.082 27.5 336.282 19.25 349.182 11.75C362.382 4.24998 379.482 0.499983 400.482 0.499983C416.082 0.499983 430.332 3.04999 443.232 8.14999C456.432 12.95 467.682 19.85 476.982 28.85C486.282 37.55 493.482 47.75 498.582 59.45C503.682 71.15 506.232 83.75 506.232 97.25C506.232 112.55 503.232 125.9 497.232 137.3C491.532 148.7 484.032 159.05 474.732 168.35C465.732 177.65 455.532 186.2 444.132 194C432.732 201.5 421.332 209.3 409.932 217.4C398.532 225.5 387.732 234.2 377.532 243.5C367.632 252.5 359.532 263 353.232 275H506.232V320H296.982Z" fill="#F3F7F4"/>
</svg>
